<?xml version="1.0" encoding="UTF-8"?>
<!DOCTYPE svg PUBLIC "-//W3C//DTD SVG 1.1//EN" "http://www.w3.org/Graphics/SVG/1.1/DTD/svg11.dtd">
<!-- Creator: CorelDRAW X8 -->
<svg xmlns="http://www.w3.org/2000/svg" xml:space="preserve" width="500px" height="155px" version="1.1" style="shape-rendering:geometricPrecision; text-rendering:geometricPrecision; image-rendering:optimizeQuality; fill-rule:evenodd; clip-rule:evenodd"
viewBox="0 0 500 155"
 xmlns:xlink="http://www.w3.org/1999/xlink">
 <defs>
  <style type="text/css">
   <![CDATA[
    .fil0 {fill:#3A7885;fill-rule:nonzero}
    .fil2 {fill:#BC5E3D;fill-rule:nonzero}
    .fil3 {fill:#CE6440;fill-rule:nonzero}
    .fil1 {fill:#FEFEFE;fill-rule:nonzero}
   ]]>
  </style>
 </defs>
 <g id="Camada_x0020_1">
  <metadata id="CorelCorpID_0Corel-Layer"/>
  <g id="_3210663572064">
   <path class="fil0" d="M152 99c0,0 0,12 -7,22 -7,13 -20,20 -37,22l0 -62 44 0 0 18 0 0zm-101 -87l44 0 0 56 -44 0 0 -56zm-13 -12l0 99c0,0 0,56 63,56 63,0 63,-56 63,-56l0 -99 -126 0z"/>
   <path class="fil0" d="M87 33c0,3 -3,5 -6,5 -2,0 -5,-2 -6,-5l-2 0c-1,3 -3,5 -7,5 -2,0 -5,-2 -5,-5l-3 0 6 18 20 0 5 -18 -2 0 0 0z"/>
   <path class="fil0" d="M61 31c0,1 0,2 -1,2 -1,0 -2,-1 -2,-2 0,-1 1,-2 2,-2 1,0 1,1 1,2z"/>
   <path class="fil0" d="M90 31c0,1 -1,2 -2,2 -1,0 -2,-1 -2,-2 0,-1 1,-2 2,-2 1,0 2,1 2,2z"/>
   <path class="fil0" d="M75 31c0,1 -1,2 -1,2 -1,0 -2,-1 -2,-2 0,-1 1,-2 2,-2 0,0 1,1 1,2z"/>
   <path class="fil1" d="M140 37c-4,-1 -6,0 -8,1 0,-1 1,-3 0,-4 0,-6 -4,-10 -5,-10 0,0 -4,4 -5,10 0,1 1,3 1,4 -2,-1 -5,-2 -8,-1 -6,1 -6,8 -1,9 4,1 -1,-1 4,-4 2,0 5,0 5,4 0,2 -1,5 -5,4 -1,0 1,3 4,3 1,0 3,0 4,-2 0,3 1,5 1,5 1,0 2,-2 2,-5 1,2 3,2 4,2 3,0 5,-3 3,-3 -3,1 -5,-2 -5,-4 0,-4 4,-4 6,-4 5,3 -1,5 4,4 4,-1 4,-8 -1,-9l0 0z"/>
   <path class="fil0" d="M113 111c0,-1 0,-1 1,-1 1,0 1,0 2,1 0,0 0,0 0,0 1,0 1,0 2,1 0,0 1,0 1,0 2,0 3,0 3,1 1,0 1,-1 1,-1 0,-1 0,-3 0,-4 0,-2 -2,-5 -2,-8l0 0c2,-1 2,-2 -1,-2 2,-2 5,-1 5,-1 0,-1 -1,-2 -2,-3 1,0 3,0 4,0 0,0 0,-1 -2,-1 2,-2 4,-1 4,-1 1,0 1,-1 -2,-1 4,-1 5,0 6,0 1,0 2,0 2,0 1,-1 1,-1 2,-1 0,1 -1,1 -1,2 2,2 2,2 3,2 0,1 3,4 3,5 0,0 1,0 0,2 0,1 -1,1 -2,1 0,0 -1,0 -1,-1 0,0 0,0 0,-1 -1,0 -1,0 -2,0 -1,-1 -1,-1 -2,-1 -1,0 -2,0 -2,-1 -1,1 -2,1 -2,1 0,2 0,3 0,4 0,3 3,5 3,8l0 0c-2,1 -2,2 0,3 -1,2 -4,0 -4,1 0,0 1,1 2,1 -1,1 -4,0 -4,1 0,0 0,1 2,1 -2,2 -4,1 -5,1 0,1 0,1 3,2 -4,0 -6,-1 -7,-1 0,0 -1,0 -1,1 -1,0 -2,0 -2,0 0,0 0,-1 0,-1 -1,-2 -2,-2 -2,-4 -1,0 -3,-3 -3,-4 0,0 -1,0 0,-1l0 0z"/>
   <path class="fil1" d="M77 121l0 0c-2,0 -3,0 -3,0 0,-1 0,-1 -1,-1 -4,-3 -13,-1 -13,-1 0,0 -1,0 -1,-1 0,0 -1,0 -1,-1l0 -23c0,0 1,0 1,0 0,0 1,0 1,0 1,0 4,0 5,0 0,0 1,1 1,1 0,1 -1,2 -2,2 0,-1 -3,-1 -3,-1l0 20c2,0 9,0 13,2 0,0 0,0 1,1 1,0 1,1 2,1l0 0c1,0 2,-1 2,-1 0,-1 0,-1 1,-1 3,-2 11,-2 13,-2l0 -21 -3 2c-1,0 -2,-1 -2,-1 0,-1 0,-2 1,-2l5 0c0,0 1,0 1,0 0,0 1,0 1,0l0 23c0,1 -1,1 -1,1 0,1 -1,1 -1,1 0,0 -9,-2 -13,1 -1,0 -1,0 -1,1 -1,0 -1,0 -3,0l0 0z"/>
   <path class="fil1" d="M66 112c3,0 7,1 9,2l0 -18c-1,-1 -6,-4 -9,-4 0,0 0,0 0,0l0 20 0 0zm13 -16l0 1 0 17c2,-1 6,-2 8,-2l0 -20c0,0 0,0 0,0 -2,0 -7,3 -8,4zm-3 21l0 -1 0 0c-3,-1 -8,-1 -11,-1l-1 0 0 -23c0,-2 1,-2 2,-2 4,0 9,4 11,4 2,0 7,-4 10,-4 2,0 3,1 3,2l0 23 -1 0c-3,0 -8,0 -11,1l0 0 0 1 -1 0 -1 0z"/>
   <path class="fil2" d="M48 97c-13,2 -26,4 -40,7 3,-6 6,-13 9,-20 -5,-4 -11,-9 -17,-13 13,-4 28,-7 43,-9 1,11 3,23 5,35l0 0z"/>
   <path class="fil2" d="M155 97c13,2 26,4 39,7 -3,-6 -6,-13 -10,-20 7,-4 13,-9 19,-13 -14,-4 -28,-7 -43,-9 -2,11 -3,23 -5,35l0 0z"/>
   <path class="fil3" d="M176 95c-49,-10 -100,-10 -150,0 -2,-11 -4,-23 -7,-34 55,-11 110,-11 164,0 -3,11 -4,23 -7,34l0 0z"/>
   <path class="fil1" d="M49 66l-3 0 2 11 2 0 -1 -4 2 0c2,0 4,-1 4,-4 -1,-2 -3,-4 -6,-3l0 0zm1 6l-1 0 -1 -4 2 0c1,0 2,0 2,1 0,2 0,2 -2,3l0 0zm16 4l3 -1 -3 -4c0,-1 1,-2 1,-3 0,-3 -1,-4 -5,-4l-4 1 2 11 2 0 -1 -4 2 0 3 4 0 0zm-5 -9l1 -1c2,0 2,1 2,2 1,1 0,1 -2,1l-1 1 0 -3 0 0zm17 -3l-7 0 1 11 7 0 0 -3 -5 0 0 -2 4 0 0 -2 -4 0 0 -3 4 0 0 -1 0 0zm11 -1l-6 0 0 11 2 0 0 -4 3 -1 0 -1 -3 0 0 -3 4 -1 0 -1 0 0zm11 0l-7 0 0 11 7 0 0 -2 -4 0 0 -3 3 0 0 -1 -3 0 0 -4 4 0 0 -1 0 0zm7 0l-3 0 0 11 3 0 0 -11zm12 0l-9 0 0 2 4 0 -1 9 3 0 0 -9 3 0 0 -2 0 0zm12 1l-2 0 -1 7c0,1 0,2 -1,2 -1,0 -2,-1 -2,-2l1 -7 -3 -1 0 8c0,2 0,4 4,4 3,0 4,-2 4,-3l0 -8 0 0zm10 12l4 1 -3 -6c2,0 3,-1 3,-3 0,-2 -2,-4 -5,-4l-4 0 0 12 2 0 0 -4 2 0 1 4 0 0zm-2 -10l1 0c1,1 2,1 1,2 0,1 -1,2 -1,1l-1 0 0 -3 0 0zm14 11l4 0 -3 -11 -3 0 -5 11 3 0 1 -3 3 1 0 2 0 0zm-2 -5l2 -4 0 4 -2 0z"/>
  </g>
  <path class="fil0" d="M209 65c0,3 2,4 3,3 0,0 6,0 8,0l0 -3 -7 0c0,0 -1,0 -1,-1l0 -2 7 -1 0 -2 -7 0 0 -3c0,-1 0,-1 1,-1l7 0 0 -3c-2,0 -8,0 -8,0 -1,0 -3,0 -3,3l0 10z"/>
  <polygon class="fil0" points="225,52 230,60 225,68 229,68 232,63 235,68 239,68 234,60 239,52 235,52 232,57 229,52 "/>
  <path class="fil0" d="M243 65c0,3 2,4 4,3 0,0 6,0 7,0l0 -3 -7 0c0,0 -1,0 -1,-1l0 -2 7 -1 0 -2 -7 0 0 -3c0,-1 0,-1 1,-1l7 0 0 -3c-2,0 -8,0 -8,0 -1,0 -3,0 -3,3l0 10z"/>
  <polygon class="fil0" points="260,68 263,68 264,57 267,68 270,68 273,57 274,68 277,68 276,52 271,52 268,63 265,52 261,52 "/>
  <path class="fil0" d="M283 68l4 0 0 -6c0,0 3,0 4,0 2,0 4,0 4,-5 0,-5 -2,-5 -4,-5l-8 0 0 16zm4 -9l0 -5 3 0c1,0 2,1 2,3 0,2 -1,2 -2,2l-3 0z"/>
  <path class="fil0" d="M301 65c0,3 1,3 3,3l7 0 0 -3 -6 0c0,0 -1,0 -1,-1l0 -12 -3 0 0 13z"/>
  <path class="fil0" d="M317 60c0,8 2,9 6,9 5,0 7,-1 7,-9 0,-8 -3,-9 -7,-9 -3,0 -6,1 -6,9zm3 0c0,-5 1,-6 3,-6 3,0 4,1 4,6 0,5 -1,6 -4,6 -2,0 -3,-1 -3,-6z"/>
  <path class="fil0" d="M350 68l7 0c4,0 6,-3 6,-8 0,-4 -1,-8 -6,-8l-7 0 0 16zm3 -2l0 -12 3 0c2,0 3,2 3,6 0,3 0,6 -3,6l-3 0z"/>
  <path class="fil0" d="M368 65c0,3 3,4 4,3 0,0 6,0 7,0l0 -3 -6 0c-1,0 -2,0 -2,-1l0 -2 7 -1 0 -2 -7 0 0 -3c0,-1 0,-1 2,-1l6 0 0 -3c-1,0 -7,0 -7,0 -2,0 -4,0 -4,3l0 10z"/>
  <path class="fil0" d="M398 68l3 0 0 -6c1,0 4,0 4,0 2,0 5,0 5,-5 0,-5 -2,-5 -5,-5l-7 0 0 16zm3 -9l0 -5 4 0c1,0 2,1 2,3 0,2 -1,2 -2,2l-4 0z"/>
  <path class="fil0" d="M415 60c0,8 3,9 7,9 4,0 7,-1 7,-9 0,-8 -3,-9 -7,-9 -4,0 -7,1 -7,9zm3 0c0,-5 2,-6 4,-6 3,0 4,1 4,6 0,5 -1,6 -4,6 -3,0 -4,-1 -4,-6z"/>
  <path class="fil0" d="M435 68l3 0 0 -6 3 0 3 6 3 0 -3 -6c1,0 3,-1 3,-5 0,-4 -2,-5 -5,-5l-7 0 0 16zm3 -9l0 -5 4 0c1,0 2,1 2,3 0,2 -1,2 -2,2l-4 0z"/>
  <polygon class="fil0" points="452,55 457,55 457,68 460,68 460,55 465,55 465,52 452,52 "/>
  <path class="fil0" d="M467 68l3 0 2 -3 5 0 1 3 4 0 -6 -16 -3 0 -6 16zm6 -6l2 -6 1 6 -3 0z"/>
  <path class="fil0" d="M487 65c0,3 2,3 4,3l7 0 0 -3 -6 0c-1,0 -2,0 -2,-1l0 -12 -3 0 0 13z"/>
  <path class="fil0" d="M209 108l6 0 0 -13c0,0 5,1 7,1 4,0 9,-1 9,-10 0,-9 -5,-10 -9,-10l-13 0 0 32zm6 -17l0 -10 7 0c1,0 3,1 3,5 0,4 -1,5 -3,5l-7 0z"/>
  <path class="fil0" d="M240 108l6 0 0 -13 5 1 5 12 7 0 -6 -13c2,0 5,-1 5,-9 0,-8 -4,-10 -9,-10l-13 0 0 32zm6 -18l0 -9 7 0c2,0 3,1 3,5 0,4 -1,4 -3,4l-7 0z"/>
  <path class="fil0" d="M272 101c0,6 4,7 7,7 0,0 11,-1 13,-1l0 -5 -12 0c-1,0 -2,0 -2,-2l0 -5 12 -1 0 -5 -12 0 0 -5c0,-1 0,-2 2,-2l12 0 0 -5c-2,-1 -14,-1 -14,-1 -2,0 -6,1 -6,7l0 18z"/>
  <path class="fil0" d="M301 108l6 0 0 -13 13 -1 0 -5 -13 0 0 -5c0,-1 0,-2 2,-2l13 0 0 -5c-3,-1 -14,-1 -14,-1 -3,0 -7,2 -7,7l0 25z"/>
  <path class="fil0" d="M331 101c0,6 5,7 7,7 0,0 11,-1 14,-1l0 -5 -12 0c-1,0 -3,0 -3,-2l0 -5 13 -1 0 -5 -13 0 0 -5c0,-1 0,-2 2,-2l13 0 0 -5c-3,-1 -14,-1 -14,-1 -3,0 -7,1 -7,7l0 18z"/>
  <polygon class="fil0" points="361,108 367,108 367,76 361,76 "/>
  <polygon class="fil0" points="376,82 384,82 384,108 390,108 390,82 399,82 399,76 376,76 "/>
  <path class="fil0" d="M407 94c0,14 6,14 12,14 5,0 12,0 12,-14l0 -18 -6 0 0 18c0,7 -2,8 -6,8 -4,0 -6,-1 -6,-8l0 -18 -6 0 0 18z"/>
  <path class="fil0" d="M441 108l6 0 0 -13 5 1 5 12 7 0 -6 -13c2,0 5,-1 5,-9 0,-8 -4,-10 -8,-10l-14 0 0 32zm6 -18l0 -9 7 0c2,0 3,1 3,5 0,4 -1,4 -3,4l-7 0z"/>
  <path class="fil0" d="M472 108l6 0 3 -7 10 0 2 7 7 0 -11 -32 -7 0 -10 32zm10 -13l4 -11 3 11 -7 0z"/>
 </g>
</svg>
