<?xml version="1.0" encoding="UTF-8"?>
<!DOCTYPE svg PUBLIC "-//W3C//DTD SVG 1.1//EN" "http://www.w3.org/Graphics/SVG/1.1/DTD/svg11.dtd">
<!-- Creator: CorelDRAW X8 -->
<svg xmlns="http://www.w3.org/2000/svg" xml:space="preserve" width="800px" height="219px" version="1.1" style="shape-rendering:geometricPrecision; text-rendering:geometricPrecision; image-rendering:optimizeQuality; fill-rule:evenodd; clip-rule:evenodd"
viewBox="0 0 800 219"
 xmlns:xlink="http://www.w3.org/1999/xlink">
 <defs>
  <style type="text/css">
   <![CDATA[
    .fil5 {fill:#005FAD}
    .fil6 {fill:#0071CE}
    .fil1 {fill:#009638}
    .fil2 {fill:#00BD5E}
    .fil0 {fill:#333E48}
    .fil3 {fill:#BF534F}
    .fil4 {fill:#FF6D68}
    .fil7 {fill:#555555;fill-rule:nonzero}
   ]]>
  </style>
 </defs>
 <g id="Camada_x0020_1">
  <metadata id="CorelCorpID_0Corel-Layer"/>
  <path class="fil0" d="M9 46c-5,0 -9,-4 -9,-10 0,-5 4,-9 9,-9l197 0c0,0 0,0 0,0 5,0 9,4 9,9 0,6 -4,10 -9,10l-197 0c0,0 0,0 0,0z"/>
  <path class="fil1" d="M167 0l-9 0c-20,0 -36,16 -36,36 0,21 16,37 36,37l9 0 0 -73z"/>
  <circle class="fil2" cx="167" cy="36" r="37"/>
  <path class="fil0" d="M9 192c-5,0 -9,-4 -9,-9 0,-6 4,-10 9,-10l197 0c0,0 0,0 0,0 5,0 9,4 9,10 0,5 -4,9 -9,9l-197 0c0,0 0,0 0,0z"/>
  <path class="fil3" d="M146 146l-8 0c-21,0 -37,16 -37,37 0,20 16,36 37,36l8 0 0 -73z"/>
  <circle class="fil4" cx="146" cy="183" r="37"/>
  <path class="fil0" d="M9 122c-5,0 -9,-5 -9,-10 0,-5 4,-9 9,-9l197 -1c0,0 0,0 0,0 5,0 9,5 9,10 0,5 -4,9 -9,9l-197 1c0,0 0,0 0,0z"/>
  <path class="fil5" d="M72 75l-9 0c-20,0 -36,17 -36,37 0,20 16,37 36,37l9 0 0 -74z"/>
  <circle class="fil6" cx="72" cy="112" r="37"/>
  <g id="_2813542332544">
  </g>
  <g id="_2813542331680">
  </g>
  <g id="_2813542329728">
  </g>
  <g id="_2813542328768">
  </g>
  <g id="_2813542330496">
  </g>
  <g id="_2813542330112">
  </g>
  <g id="_2813542329792">
  </g>
  <g id="_2813542329952">
  </g>
  <g id="_2813542329920">
  </g>
  <g id="_2813542327392">
  </g>
  <g id="_2813542327680">
  </g>
  <g id="_2813542328352">
  </g>
  <g id="_2813542326592">
  </g>
  <g id="_2813542327328">
  </g>
  <g id="_2813542328064">
  </g>
  <path class="fil7" d="M323 56c0,5 -1,8 -4,10 -3,2 -7,3 -12,3l-5 0 0 16 -4 0 0 -40 10 0c10,0 15,4 15,11zm-21 9l5 0c4,0 7,0 9,-2 2,-1 3,-3 3,-6 0,-3 -1,-5 -3,-6 -2,-2 -5,-2 -8,-2l-6 0 0 16zm61 20l-5 -13 -17 0 -5 13 -4 0 16 -41 4 0 16 41 -5 0zm-7 -17l-4 -12c-1,-2 -2,-4 -2,-6 -1,1 -1,3 -2,6l-5 12 13 0zm23 17l0 -40 4 0 0 40 -4 0zm53 0l-6 0 -22 -34 0 0c0,4 0,8 0,11l0 23 -4 0 0 -40 5 0 22 34 1 0c-1,-1 -1,-2 -1,-5 0,-3 0,-5 0,-6l0 -23 5 0 0 40zm39 0l-23 0 0 -40 23 0 0 4 -18 0 0 13 17 0 0 4 -17 0 0 15 18 0 0 4zm14 0l0 -40 5 0 0 36 18 0 0 4 -23 0zm92 -20c0,6 -2,12 -6,15 -3,4 -9,5 -15,5l-12 0 0 -40 13 0c6,0 11,1 15,5 3,3 5,8 5,15zm-5 0c0,-6 -1,-10 -4,-12 -3,-3 -7,-4 -12,-4l-7 0 0 32 6 0c5,0 10,-1 13,-4 2,-3 4,-7 4,-12zm42 20l-23 0 0 -40 23 0 0 4 -18 0 0 13 17 0 0 4 -17 0 0 15 18 0 0 4z"/>
  <path class="fil7" d="M319 161l-5 -13 -16 0 -5 13 -5 0 16 -41 4 0 16 41 -5 0zm-6 -17l-5 -13c-1,-1 -1,-3 -2,-6 0,2 -1,4 -2,6l-5 13 14 0zm54 -4c0,7 -1,12 -5,16 -4,3 -9,5 -16,5l-11 0 0 -41 12 0c7,0 12,2 15,6 4,3 5,8 5,14zm-5 1c0,-6 -1,-10 -4,-12 -2,-3 -6,-4 -12,-4l-6 0 0 32 5 0c6,0 10,-1 13,-4 3,-3 4,-7 4,-12zm38 20l-14 -36 0 0c0,3 0,6 0,10l0 26 -4 0 0 -41 7 0 13 34 0 0 13 -34 7 0 0 41 -5 0 0 -26c0,-3 1,-6 1,-10l0 0 -14 36 -4 0zm38 0l0 -41 5 0 0 41 -5 0zm53 0l-5 0 -22 -34 0 0c0,4 0,8 0,11l0 23 -4 0 0 -41 5 0 22 35 0 0c0,-1 0,-3 0,-5 0,-3 0,-5 0,-6l0 -24 4 0 0 41zm17 0l0 -41 5 0 0 41 -5 0zm44 -11c0,4 -1,7 -4,9 -2,2 -6,3 -10,3 -5,0 -9,-1 -12,-2l0 -5c2,1 4,2 6,2 2,0 4,1 6,1 3,0 5,-1 7,-2 1,-1 2,-3 2,-5 0,-2 0,-3 -1,-4 0,0 -1,-1 -2,-2 -2,-1 -4,-2 -7,-3 -3,-1 -6,-3 -8,-5 -1,-1 -2,-4 -2,-7 0,-3 1,-5 3,-7 3,-2 6,-3 10,-3 4,0 8,1 11,2l-1 4c-4,-1 -7,-2 -10,-2 -3,0 -5,1 -6,2 -2,1 -2,2 -2,4 0,2 0,3 0,4 1,1 2,1 3,2 1,1 3,2 6,3 4,1 7,3 9,5 1,1 2,4 2,6zm26 11l-5 0 0 -36 -13 0 0 -5 31 0 0 5 -13 0 0 36zm29 -17l0 17 -5 0 0 -41 12 0c5,0 8,1 11,3 2,2 3,5 3,9 0,5 -2,9 -8,11l11 18 -5 0 -10 -17 -9 0zm0 -4l7 0c3,0 5,0 7,-2 2,-1 2,-3 2,-6 0,-2 0,-4 -2,-6 -2,-1 -4,-1 -8,-1l-6 0 0 15zm62 21l-6 -13 -16 0 -5 13 -5 0 16 -41 4 0 16 41 -4 0zm-7 -17l-5 -13c0,-1 -1,-3 -2,-6 0,2 -1,4 -1,6l-5 13 13 0zm39 -20c-5,0 -8,2 -11,5 -3,3 -4,7 -4,12 0,5 1,9 4,12 2,3 6,5 11,5 2,0 6,-1 9,-2l0 4c-3,1 -6,2 -10,2 -6,0 -11,-2 -14,-6 -3,-3 -5,-8 -5,-15 0,-4 1,-8 2,-11 2,-3 4,-6 7,-8 3,-1 7,-2 11,-2 4,0 8,1 11,2l-2 4c-3,-1 -6,-2 -9,-2zm3 45c0,2 -1,4 -2,5 -2,0 -4,1 -6,1 -1,0 -2,0 -3,0l0 -3c1,0 2,0 3,0 1,0 2,0 3,-1 1,0 1,-1 1,-2 0,0 0,-1 -1,-2 -1,0 -2,0 -4,-1l2 -5 4 0 -2 3c3,1 5,3 5,5zm46 -8l-5 -13 -16 0 -5 13 -5 0 16 -41 4 0 16 41 -5 0zm-7 -17l-4 -13c-1,-1 -2,-3 -2,-6 -1,2 -1,4 -2,6l-5 13 13 0zm-2 -27c-1,0 -2,0 -2,0 -1,-1 -2,-1 -3,-1 0,-1 -1,-1 -2,-2 -1,0 -1,0 -2,0 -1,0 -1,0 -2,1 0,0 -1,1 -1,2l-3 0c0,-2 1,-4 2,-5 1,-1 3,-2 4,-2 1,0 2,0 3,1 1,0 1,0 2,1 1,0 2,0 2,1 1,0 2,0 2,0 1,0 2,0 2,0 1,-1 1,-2 1,-3l3 0c0,2 -1,4 -2,5 -1,2 -2,2 -4,2zm59 24c0,6 -2,11 -5,15 -3,4 -8,6 -14,6 -6,0 -10,-2 -14,-6 -3,-3 -5,-9 -5,-15 0,-7 2,-12 5,-16 4,-3 8,-5 14,-5 6,0 11,2 14,5 3,4 5,9 5,16zm-33 0c0,5 2,10 4,12 2,3 6,5 10,5 5,0 8,-2 11,-5 2,-2 3,-7 3,-12 0,-6 -1,-10 -3,-13 -3,-3 -6,-4 -11,-4 -4,0 -8,2 -10,4 -2,3 -4,7 -4,13z"/>
 </g>
</svg>
