<?xml version="1.0" encoding="UTF-8"?>
<!DOCTYPE svg PUBLIC "-//W3C//DTD SVG 1.1//EN" "http://www.w3.org/Graphics/SVG/1.1/DTD/svg11.dtd">
<!-- Creator: CorelDRAW X7 -->
<svg xmlns="http://www.w3.org/2000/svg" xml:space="preserve" width="1594px" height="1594px" version="1.1" style="shape-rendering:geometricPrecision; text-rendering:geometricPrecision; image-rendering:optimizeQuality; fill-rule:evenodd; clip-rule:evenodd"
viewBox="0 0 1594 1594"
 xmlns:xlink="http://www.w3.org/1999/xlink">
 <defs>
  <style type="text/css">
   <![CDATA[
    .fil0 {fill:#FEFEFE}
   ]]>
  </style>
 </defs>
 <g id="Camada_x0020_1">
  <metadata id="CorelCorpID_0Corel-Layer"/>
  <path class="fil0" d="M188 1468l207 -71c116,75 254,119 402,119 408,0 738,-330 738,-738 0,-407 -330,-737 -738,-737 -408,0 -738,330 -738,737 0,148 43,285 118,401l-72 208c-18,66 10,93 83,81zm609 -1211c83,0 150,67 150,150 0,83 -67,150 -150,150 -83,0 -150,-67 -150,-150 0,-83 67,-150 150,-150zm0 373l0 0c83,0 150,68 150,150l0 360c0,83 -67,151 -150,151l0 0c-83,0 -150,-68 -150,-151l0 -360c0,-82 67,-150 150,-150z"/>
 </g>
</svg>
