<?xml version="1.0" encoding="iso-8859-1"?>
<!-- Generator: Adobe Illustrator 19.0.0, SVG Export Plug-In . SVG Version: 6.00 Build 0)  -->
<svg xmlns="http://www.w3.org/2000/svg" xmlns:xlink="http://www.w3.org/1999/xlink" version="1.1" id="Layer_1" x="0px" y="0px" viewBox="0 0 397.78 397.78" style="enable-background:new 0 0 397.78 397.78;" xml:space="preserve" width="512" height="512">
<g>
	<path style="fill:#E6E6E6;" d="M348.923,316.72v81.06H89.383c-17.36,0-32.18-10.93-37.95-26.28c-1.67-4.43-2.58-9.23-2.58-14.25   c0-11.19,4.54-21.33,11.87-28.66c7.34-7.33,17.47-11.87,28.66-11.87H348.923z"/>
	<path style="fill:#CCCCCC;" d="M89.383,277.16c-11.19,0-21.32,9.67-28.66,17c-7.33,7.33-11.87,51.9-11.87,63.09   c0,5.02,0.91,9.82,2.58,14.25c2.05-5.46,5.24-10.36,9.29-14.41c7.34-7.33,17.47-11.87,28.66-11.87h259.54v-52.06L89.383,277.16z"/>
	<path style="fill:#3679A3;" d="M89.383,0v316.72c-11.19,0-21.32,4.54-28.66,11.87c-7.33,7.33-11.87,17.47-11.87,28.66V40.53   C48.853,18.15,67.003,0,89.383,0z"/>
	<g>
		<rect x="88.282" y="365.32" style="fill:#B3B3B3;" width="260.645" height="10"/>
		<rect x="159.282" y="339.177" style="fill:#B3B3B3;" width="189.645" height="10"/>
	</g>
	<path style="fill:#4288BC;" d="M348.923,0v316.72H89.383V0H348.923z"/>
	<rect x="107.383" y="18" style="fill:#3679A3;" width="223.54" height="280.72"/>
	<path style="fill:#D8A664;" d="M260.823,59.86l23.57,23.81c-7.57,7.77-11.55,18.02-11.55,28.42c0,5.73,1.2,11.49,3.68,16.92   l5.32,11.63c12.21,26.73-3.24,56.54-29.56,63.86c-0.56,0.16-1.32,0.33-2.22,0.5c-12.12,2.37-23.05,8.85-30.91,18.38   c-7.85-9.53-18.79-16.01-30.9-18.38c-0.91-0.17-1.67-0.34-2.22-0.5c-26.32-7.32-41.77-37.13-29.56-63.86l5.31-11.63   c2.48-5.43,3.68-11.2,3.68-16.92c0-10.4-3.98-20.66-11.54-28.42l23.57-23.81c5.7,4.93,13.13,7.9,21.25,7.9   c7.73,0,14.83-2.7,20.41-7.21c5.58,4.51,12.68,7.21,20.42,7.21C247.693,67.76,255.113,64.79,260.823,59.86z"/>
	<path style="fill:#EAB96C;" d="M269.063,173.42c-4.03,8.67-11.52,15.08-20.53,17.59l-0.1,0.03c0,0-0.29,0.08-0.97,0.2   c-10.38,2.03-20.07,6.45-28.31,12.79c-5.24-4.04-11.07-7.3-17.29-9.65c-3.52-1.34-7.18-2.39-10.92-3.12l-0.12-0.02   c-0.65-0.12-0.92-0.2-0.93-0.2l-0.11-0.03c-9.01-2.51-16.5-8.92-20.53-17.59c-4.03-8.64-4.04-18.22-0.05-26.96l5.32-11.63   c3.28-7.19,4.94-14.84,4.94-22.74c0-9.64-2.49-18.93-7.15-27.1l7.28-7.35c5.97,2.69,12.49,4.12,19.15,4.12   c7.1,0,14.09-1.64,20.41-4.72c3.32,1.62,6.83,2.84,10.44,3.63c3.26,0.72,6.61,1.09,9.98,1.09c6.65,0,13.18-1.43,19.15-4.12   l7.28,7.35c-4.67,8.17-7.16,17.46-7.16,27.1c0,7.9,1.66,15.55,4.95,22.74l5.32,11.63C273.103,155.2,273.093,164.78,269.063,173.42z   "/>
	<rect x="153.029" y="251.263" style="fill:#D8A664;" width="132.253" height="12"/>
	<path style="fill:#FCCC8B;" d="M269.063,173.42c-4.03,8.67-11.52,15.08-20.53,17.59l-0.1,0.03c0,0-0.29,0.08-0.97,0.2   c-10.38,2.03-20.07,6.45-28.31,12.79c-5.24-4.04-11.07-7.3-17.29-9.65l27.73-113.71c3.26,0.72,6.61,1.09,9.98,1.09   c6.65,0,13.18-1.43,19.15-4.12l7.28,7.35c-4.67,8.17-7.16,17.46-7.16,27.1c0,7.9,1.66,15.55,4.95,22.74l5.32,11.63   C273.103,155.2,273.093,164.78,269.063,173.42z"/>
	<g>
		<rect x="191.157" y="112.769" style="fill:#D8A664;" width="55.998" height="11"/>
		<rect x="191.157" y="136.768" style="fill:#D8A664;" width="55.998" height="11"/>
	</g>
</g>















</svg>
